<svg width="32" height="32" viewBox="0 0 32 32" fill="none" xmlns="http://www.w3.org/2000/svg">
<path d="M15.7429 13.9545H11.5369C11.5071 13.6065 11.4276 13.2908 11.2983 13.0075C11.174 12.7241 11 12.4805 10.7763 12.2766C10.5575 12.0678 10.2915 11.9087 9.97834 11.7994C9.66513 11.685 9.30966 11.6278 8.91193 11.6278C8.21591 11.6278 7.62678 11.7969 7.14453 12.1349C6.66726 12.473 6.30433 12.9577 6.05575 13.5891C5.81214 14.2205 5.69034 14.9787 5.69034 15.8636C5.69034 16.7983 5.81463 17.5813 6.06321 18.2127C6.31676 18.8391 6.68217 19.3114 7.15945 19.6296C7.63672 19.9428 8.21094 20.0994 8.8821 20.0994C9.26492 20.0994 9.60796 20.0522 9.91122 19.9577C10.2145 19.8583 10.478 19.7166 10.7017 19.5327C10.9254 19.3487 11.1069 19.1275 11.2461 18.869C11.3903 18.6055 11.4872 18.3097 11.5369 17.9815L15.7429 18.0114C15.6932 18.6577 15.5117 19.3164 15.1985 19.9876C14.8853 20.6538 14.4403 21.2702 13.8636 21.837C13.2919 22.3988 12.5835 22.8512 11.7383 23.1942C10.8931 23.5373 9.91122 23.7088 8.79261 23.7088C7.39062 23.7088 6.13281 23.408 5.01918 22.8065C3.91051 22.2049 3.03303 21.32 2.38672 20.1516C1.74538 18.9833 1.42472 17.554 1.42472 15.8636C1.42472 14.1634 1.75284 12.7315 2.40909 11.5682C3.06534 10.3999 3.95028 9.5174 5.06392 8.92081C6.17756 8.31925 7.42045 8.01847 8.79261 8.01847C9.7571 8.01847 10.6445 8.15021 11.4549 8.41371C12.2653 8.6772 12.9762 9.0625 13.5877 9.5696C14.1992 10.0717 14.6914 10.6907 15.0643 11.4265C15.4371 12.1623 15.6634 13.005 15.7429 13.9545Z" fill="#5BB3EA"/>
<path d="M17.624 23.5V8.22727H24.2462C25.4095 8.22727 26.3865 8.38388 27.1769 8.69709C27.9724 9.0103 28.5715 9.45277 28.9742 10.0245C29.3818 10.5962 29.5857 11.2699 29.5857 12.0455C29.5857 12.6072 29.4614 13.1193 29.2128 13.5817C28.9692 14.044 28.6262 14.4318 28.1837 14.745C27.7412 15.0533 27.2242 15.267 26.6325 15.3864V15.5355C27.2888 15.5604 27.8854 15.7269 28.4223 16.0352C28.9593 16.3384 29.3868 16.7585 29.705 17.2955C30.0232 17.8274 30.1823 18.4538 30.1823 19.1747C30.1823 20.0099 29.9635 20.7532 29.526 21.4045C29.0935 22.0558 28.477 22.5678 27.6766 22.9407C26.8762 23.3136 25.9216 23.5 24.8129 23.5H17.624ZM21.7703 20.1889H23.7093C24.4053 20.1889 24.9273 20.0597 25.2753 19.8011C25.6233 19.5376 25.7973 19.1499 25.7973 18.6378C25.7973 18.2798 25.7153 17.9766 25.5512 17.728C25.3872 17.4794 25.1535 17.2905 24.8502 17.1612C24.5519 17.032 24.1915 16.9673 23.7689 16.9673H21.7703V20.1889ZM21.7703 14.402H23.4706C23.8335 14.402 24.1542 14.3448 24.4326 14.2305C24.711 14.1161 24.9273 13.9521 25.0814 13.7383C25.2405 13.5195 25.32 13.2536 25.32 12.9403C25.32 12.468 25.151 12.1076 24.8129 11.859C24.4749 11.6055 24.0473 11.4787 23.5303 11.4787H21.7703V14.402Z" fill="#464646"/>
</svg>
